<?xml version="1.0" encoding="UTF-8"?>
<svg width="275px" height="237px" viewBox="0 0 275 237" version="1.1" xmlns="http://www.w3.org/2000/svg" xmlns:xlink="http://www.w3.org/1999/xlink">
    <!-- Generator: Sketch 49.2 (51160) - http://www.bohemiancoding.com/sketch -->
    <title>gloom-seeklogo.com</title>
    <desc>Created with Sketch.</desc>
    <defs></defs>
    <g id="Page-1" stroke="none" stroke-width="1" fill="none" fill-rule="evenodd">
        <g id="gloom-seeklogo.com" fill="#FFFFFF" fill-rule="nonzero">
            <path d="M209.711884,75.0222206 C214.276574,76.4244997 218.522031,78.5290912 222.448256,81.3359949 C225.707721,80.8771121 229.041636,80.1151138 232.45,79.05 C242.216667,76.0166667 249.033333,71.3 252.9,64.9 C255.666667,60.3333333 256.483333,54.7166667 255.35,48.05 C254.216667,41.6166667 251.683333,36.2833333 247.75,32.05 C246.05,30.25 245.266667,29.2166667 245.4,28.95 C245.533333,28.5833333 246.85,29.0333333 249.35,30.3 C259.45,35.3666667 266.75,42.9666667 271.25,53.1 C276.383333,64.7333333 275.666667,76.0833333 269.1,87.15 C265.5,93.25 260.45,98.4666667 253.95,102.8 C250.205994,105.328169 246.204997,107.42057 241.947008,109.077203 C243.764134,116.153262 243.731799,123.344194 241.85,130.65 C241.616667,131.616667 241.266667,132.016667 240.8,131.85 C240.333333,131.683333 239.916667,131.133333 239.55,130.2 C236.482491,123.79028 231.669939,118.135174 225.112343,113.234681 C223.979087,113.374157 222.849495,113.485881 221.723567,113.56985 C223.856685,120.280023 224.732163,127.456739 224.35,135.1 C223.75,147.266667 220.1,157.3 213.4,165.2 C212.066667,166.6 211.416667,166.333333 211.45,164.4 C211.616667,159.9 210.966667,154.75 209.5,148.95 C207.8,142.083333 205.25,135.733333 201.85,129.9 C196.476104,120.644957 189.693924,113.742998 181.503458,109.194123 C186.253784,116.879723 189.519298,125.681682 191.3,135.6 C193.172409,145.851441 193.2736,154.999979 191.603573,163.045614 C192.059449,163.299746 192.524925,163.617874 193,164 C196.1,166.5 198.816667,168.383333 201.15,169.65 C206.416667,172.416667 212.866667,174.466667 220.5,175.8 C222.233333,176.1 223.5,176.85 224.3,178.05 C225.1,179.216667 225.383333,180.666667 225.15,182.4 C224.816667,185 223.35,187.15 220.75,188.85 C217.883333,190.716667 214.25,191.55 209.85,191.35 C203.883333,191.05 198.566667,189.233333 193.9,185.9 C191.201397,184.034299 188.486145,181.369426 185.754243,177.905381 C183.890183,180.901074 181.655435,183.665947 179.05,186.2 C175.648389,189.513827 171.78081,192.31834 167.447261,194.613538 C168.042699,196.415657 169.210278,198.627811 170.95,201.25 C173.35,204.816667 175.4,206.95 177.1,207.65 L190.8,210.3 C200.366667,212.266667 207.7,214.533333 212.8,217.1 C215.033333,218.233333 216.716667,219.916667 217.85,222.15 C218.95,224.416667 219.2,226.65 218.6,228.85 C217.166667,234.35 211.95,236.75 202.95,236.05 C196.616667,235.55 189.366667,233.95 181.2,231.25 C172.066667,228.283333 166.4,225.283333 164.2,222.25 C163.133333,220.783333 162.4,218.433333 162,215.2 L161.7,210.85 C161.666667,209.883333 161.266667,208.716667 160.5,207.35 L158.05,203.5 L155.65,199.85 C155.557183,199.68546 155.468904,199.523056 155.385165,199.362788 C149.297392,201.060284 142.552337,202.039354 135.15,202.3 C126.117701,202.625841 117.969602,202.113347 110.705704,200.762518 C110.531895,204.829499 110.829994,207.291993 111.6,208.15 C114.866667,211.883333 115.183333,215.666667 112.55,219.5 C110.783333,222.1 106.316667,224.933333 99.15,228 C90.8833333,231.566667 81.6666667,234.15 71.5,235.75 C68.8,236.183333 66.0833333,235.883333 63.35,234.85 C60.65,233.85 58.5333333,232.4 57,230.5 C55.3666667,228.466667 54.7833333,226.316667 55.25,224.05 C55.75,221.516667 57.5833333,219.15 60.75,216.95 C63.65,214.916667 70.3666667,212.633333 80.9,210.1 L96.7,206.55 C97.6,206.15 98.1666667,204.683333 98.4,202.15 L98.4351601,197.368224 C92.5598013,195.11778 87.4814146,192.111705 83.2,188.35 C81.2906241,186.672235 79.5722395,184.874801 78.0448462,182.957698 C77.0045964,184.343218 75.9063143,185.573985 74.75,186.65 C70.85,190.316667 65.9666667,192.8 60.1,194.1 C55.8,195.066667 52.05,194.633333 48.85,192.8 C46.0833333,191.233333 44.35,189.05 43.65,186.25 L43.45,185.2 C43.25,182.366667 44.5666667,180.533333 47.4,179.7 C53.3333333,178 59.7833333,174.516667 66.75,169.25 L69.95,166.8 C70.0454054,166.730614 70.1390556,166.663234 70.2309506,166.597861 C68.8043933,160.491749 68.5107431,153.675795 69.35,146.15 C69.9206695,141.032997 70.7803654,136.16567 71.9290878,131.548018 C69.4411685,137.267761 67.8648059,143.418422 67.2,150 C66.6333333,155.466667 66.7166667,160.4 67.45,164.8 C67.7166667,166.033333 67.7833333,166.733333 67.65,166.9 C67.45,167.2 66.8166667,166.85 65.75,165.85 C56.15,157.816667 50.0333333,149.166667 47.4,139.9 C45.4,132.8 45.4666667,125.4 47.6,117.7 C50.3333333,107.866667 55.8,99.15 64,91.55 C65.2445694,90.3876709 66.4886879,89.3056015 67.7323554,88.3037919 C67.5765226,88.1608011 67.422213,88.0169672 67.2694265,87.8722901 C63.0687495,87.5506933 58.512274,87.80993 53.6,88.65 C42.3333333,90.5833333 32.7333333,94.8833333 24.8,101.55 C17.8333333,107.416667 13.3833333,114.8 11.45,123.7 C10.4547901,128.396692 10.223218,133.230565 10.7552835,138.201618 C10.9641866,138.553714 11.1790921,138.903175 11.4,139.25 C14.6333333,144.316667 18.3,147.5 22.4,148.8 C28.4666667,150.766667 33.5,148.816667 37.5,142.95 C38.2333333,141.95 38.7166667,141.6 38.95,141.9 C39.15,142.133333 39.2333333,142.983333 39.2,144.45 C38.6333333,149.65 37.15,153.583333 34.75,156.25 C32.4166667,158.85 29.2833333,160.166667 25.35,160.2 C20.8332237,160.253771 16.9019431,158.290835 13.5561579,154.311193 C11.6619858,152.599689 9.85993319,150.095958 8.15,146.8 C5.85,142.4 4.06666667,137.233333 2.8,131.3 C-0.166666667,117.466667 0.3,104.716667 4.2,93.05 C7.63333333,82.8833333 13.0666667,74.8333333 20.5,68.9 C29.7976983,61.4442985 41.5702258,58.0021801 55.8175824,58.5736448 C56.1556574,49.9350802 59.2664633,42.2438652 65.15,35.5 C72.15,27.5 81.1333333,23.0166667 92.1,22.05 C95.3777696,21.765859 98.5520445,21.8802496 101.622825,22.3931718 C103.011529,19.3741152 104.870588,16.5097246 107.2,13.8 C113.7,6.2 122.016667,1.96666667 132.15,1.1 C142.283333,0.233333333 151.283333,2.98333333 159.15,9.35 C164.466451,13.6569981 168.190251,18.7716439 170.321399,24.6939373 C180.792089,23.8132452 190.051622,26.7319328 198.1,33.45 C206.166667,40.1833333 210.666667,48.7833333 211.6,59.25 C212.083981,64.8785247 211.454609,70.1359316 209.711884,75.0222206 Z" id="Combined-Shape"></path>
        </g>
    </g>
</svg>