<?xml version="1.0" standalone="no"?>
<!DOCTYPE svg PUBLIC "-//W3C//DTD SVG 20010904//EN"
 "http://www.w3.org/TR/2001/REC-SVG-20010904/DTD/svg10.dtd">
<svg version="1.0" xmlns="http://www.w3.org/2000/svg"
 width="275.000000pt" height="275.000000pt" viewBox="0 0 275.000000 275.000000"
 preserveAspectRatio="xMidYMid meet">
<metadata>
Created by potrace 1.11, written by Peter Selinger 2001-2013
</metadata>
<g transform="translate(0.000000,275.000000) scale(0.100000,-0.100000)"
fill="#000000" stroke="none">
<path d="M1237 2530 c-82 -26 -167 -94 -203 -162 -13 -26 -19 -28 -77 -28
-194 0 -369 -143 -393 -322 -6 -43 -7 -44 -43 -43 -20 1 -67 -5 -106 -12 -244
-45 -400 -255 -403 -540 0 -55 4 -119 9 -144 6 -24 13 -55 15 -68 8 -39 70
-163 95 -192 52 -57 133 -75 190 -42 34 20 69 89 69 135 l0 32 -31 -32 c-17
-17 -46 -36 -65 -41 -80 -22 -183 58 -189 145 -4 58 20 158 52 215 74 136 278
248 456 249 l59 0 -61 -67 c-58 -63 -124 -176 -137 -233 -35 -163 4 -296 128
-423 52 -54 67 -76 60 -87 -12 -21 -107 -77 -164 -98 -57 -20 -75 -50 -54 -91
20 -37 39 -51 83 -62 49 -11 131 12 190 53 l44 30 41 -41 c23 -22 74 -56 113
-76 64 -32 72 -38 67 -60 -3 -20 -22 -34 -52 -40 -16 -3 -78 -16 -97 -20 -13
-3 -32 -7 -44 -10 -12 -2 -52 -14 -89 -26 -160 -50 -196 -152 -75 -211 42 -21
49 -21 122 -9 138 23 306 88 362 140 35 33 42 83 16 117 -35 46 -27 49 157 49
114 0 191 5 227 14 l55 14 23 -29 c12 -16 25 -49 29 -74 10 -79 23 -107 62
-132 76 -50 255 -103 358 -107 88 -3 129 16 145 69 28 93 -44 138 -314 195
-71 15 -114 29 -126 42 -23 25 -55 73 -50 76 2 2 23 15 47 30 49 31 113 92
130 122 10 20 11 19 39 -7 91 -86 247 -106 315 -41 28 27 36 65 19 91 -4 8
-42 23 -82 33 -129 35 -231 92 -213 120 12 21 5 225 -11 303 -9 43 -27 103
-41 134 -13 30 -23 56 -21 58 6 6 89 -81 119 -124 63 -92 116 -241 120 -341 2
-61 12 -68 40 -30 85 116 114 306 72 473 -5 22 -3 25 18 21 27 -5 130 -112
148 -155 7 -16 16 -28 20 -25 18 11 29 160 16 203 -6 17 0 24 31 38 163 75
277 223 288 372 7 99 -53 238 -136 317 -48 45 -138 100 -148 90 -2 -3 7 -18
22 -33 60 -63 88 -191 62 -280 -23 -77 -111 -150 -220 -181 -81 -24 -93 -23
-161 10 -60 30 -65 34 -59 58 23 85 6 209 -40 287 -66 112 -207 193 -332 189
-26 -1 -33 4 -47 36 -20 44 -80 109 -132 141 -91 57 -210 71 -317 38z"/>
</g>
</svg>
